<svg width="1301" height="303" viewBox="0 0 1301 303" fill="none" xmlns="http://www.w3.org/2000/svg">
<path fill-rule="evenodd" clip-rule="evenodd" d="M0.704102 61.0318V0.799805H264.564V61.0318H169.14V303H96.1281V61.0318H0.704102ZM98.1281 59.0318V301H167.14V59.0318H262.564V2.7998H2.7041V59.0318H98.1281ZM549.628 243.62V303H314.736V0.799805H544.09V60.1798H387.322V120.932H525.772V178.608H387.322V243.62H549.628ZM385.322 176.608H523.772V122.932H385.322V58.1798H542.09V2.7998H316.736V301H547.628V245.62H385.322V176.608ZM842.377 301L815.965 237.1H677.515L651.103 301H580.387L713.299 2.7998H781.459L914.797 301H842.377ZM678.852 239.1L652.44 303H577.306L712.001 0.799805H782.755L917.882 303H841.039L814.627 239.1H678.852ZM746.953 70.5338L699.667 184.702H794.239L746.953 70.5338ZM746.953 75.7604L702.66 182.702H791.246L746.953 75.7604ZM1232.14 303L1231.73 129.319L1147.09 271.476H1113.73L1029.53 133.05V303H960.775V0.799805H1020.99L1131.46 184.212L1240.24 0.799805H1300.03L1300.89 303H1232.14ZM1131.47 188.11L1019.86 2.7998H962.775V301H1027.53V125.914L1114.86 269.476H1145.95L1233.71 122.08L1234.14 301H1298.89L1298.04 2.7998H1241.38L1131.47 188.11Z" fill="white"/>
</svg>
