<svg width="866" height="153" viewBox="0 0 866 153" fill="none" xmlns="http://www.w3.org/2000/svg">
<path fill-rule="evenodd" clip-rule="evenodd" d="M235.855 2.50003L187.602 150H149.029L118.881 57.2092L87.7554 150H49.4037L0.939453 2.50003H39.6001L70.573 98.9472L102.918 2.50003H136.563L167.924 99.7202L199.874 2.50003H235.855ZM167.907 106.18L135.107 4.50003H104.357L70.5318 105.36L38.1418 4.50003H3.70179L50.8518 148H86.3168L118.912 50.83L150.482 148H186.152L233.097 4.50003H201.322L167.907 106.18ZM286.203 142.589L286.194 142.585C274.002 135.998 264.375 126.939 257.352 115.421L257.345 115.409L257.337 115.397C250.446 103.724 247.015 90.6589 247.015 76.25C247.015 61.8414 250.446 48.8401 257.343 37.2991L257.347 37.293C264.368 25.6368 273.996 16.5051 286.194 9.9154L286.203 9.91087C298.545 3.31869 312.336 0.0400391 327.53 0.0400391C342.724 0.0400391 356.449 3.31861 368.66 9.9154C380.857 16.5046 390.485 25.6355 397.506 37.2906C404.542 48.8321 408.045 61.8365 408.045 76.25C408.045 90.6665 404.541 103.737 397.508 115.412L397.502 115.421C390.479 126.939 380.852 135.998 368.66 142.585C356.449 149.181 342.724 152.46 327.53 152.46C312.336 152.46 298.545 149.181 286.203 142.589ZM395.795 38.325C388.961 26.9817 379.6 18.0984 367.71 11.675C355.82 5.25171 342.426 2.04004 327.53 2.04004C312.633 2.04004 299.171 5.25171 287.145 11.675C275.255 18.0984 265.893 26.9817 259.06 38.325C252.363 49.5317 249.015 62.1734 249.015 76.25C249.015 90.3267 252.363 103.037 259.06 114.38C265.893 125.587 275.255 134.402 287.145 140.825C299.171 147.248 312.633 150.46 327.53 150.46C342.426 150.46 355.82 147.248 367.71 140.825C379.6 134.402 388.961 125.587 395.795 114.38C402.628 103.037 406.045 90.3267 406.045 76.25C406.045 62.1734 402.628 49.5317 395.795 38.325ZM349.499 38.0127L349.486 38.0051C342.98 34.2314 335.677 32.33 327.53 32.33C319.382 32.33 312.08 34.2314 305.573 38.0051L305.56 38.0127L305.547 38.0201C299.044 41.6618 293.908 46.7906 290.121 53.4452C286.479 60.0839 284.635 67.6685 284.635 76.25C284.635 84.8315 286.479 92.4161 290.121 99.0547C293.909 105.711 299.049 110.913 305.56 114.692C312.067 118.333 319.375 120.17 327.53 120.17C335.684 120.17 342.992 118.333 349.499 114.693C356.009 110.914 361.076 105.716 364.727 99.0675L364.734 99.0544L364.741 99.0414C368.515 92.4044 370.425 84.825 370.425 76.25C370.425 67.675 368.515 60.0957 364.741 53.4586L364.734 53.4457L364.727 53.4326C361.077 46.7856 356.014 41.6608 349.513 38.0201L349.499 38.0127ZM350.49 116.43C343.656 120.257 336.003 122.17 327.53 122.17C319.056 122.17 311.403 120.257 304.57 116.43C297.736 112.467 292.338 107 288.375 100.03C284.548 93.06 282.635 85.1334 282.635 76.25C282.635 67.3667 284.548 59.44 288.375 52.47C292.338 45.5 297.736 40.1017 304.57 36.275C311.403 32.3117 319.056 30.33 327.53 30.33C336.003 30.33 343.656 32.3117 350.49 36.275C357.323 40.1017 362.653 45.5 366.48 52.47C370.443 59.44 372.425 67.3667 372.425 76.25C372.425 85.1334 370.443 93.06 366.48 100.03C362.653 107 357.323 112.467 350.49 116.43ZM529.586 150L501.911 110.025H474.413V150H437.203V2.50003H501.318C514.245 2.50003 525.541 4.65393 535.149 9.03346C544.886 13.4091 552.443 19.6594 557.731 27.8061C563.028 35.9662 565.638 45.5821 565.638 56.57C565.638 67.5665 562.955 77.1885 557.516 85.3501C552.629 92.7455 545.809 98.5208 537.13 102.696L570.138 150H529.586ZM534.118 101.875C534.745 101.602 535.363 101.322 535.97 101.034C544.502 96.9858 551.128 91.3896 555.848 84.245C561.042 76.455 563.638 67.23 563.638 56.57C563.638 45.91 561.11 36.685 556.053 28.895C550.997 21.105 543.753 15.0917 534.323 10.855C525.03 6.61837 514.029 4.50003 501.318 4.50003H439.203V148H472.413V108.025H502.958L530.633 148H566.303L534.118 101.875ZM520.952 39.6599L520.94 39.6499C516.243 35.6947 509.194 33.56 499.473 33.56H474.413V79.58H499.473C509.194 79.58 516.243 77.4454 520.94 73.4902C525.605 69.5623 528.018 64.0165 528.018 56.57C528.018 48.9726 525.597 43.4488 520.964 39.6698L520.952 39.6599ZM472.413 81.58V31.56H499.473C509.45 31.56 517.035 33.7467 522.228 38.12C527.422 42.3567 530.018 48.5067 530.018 56.57C530.018 64.4967 527.422 70.6467 522.228 75.02C517.035 79.3934 509.45 81.58 499.473 81.58H472.413ZM696.346 148L650.425 91.625L631.156 111.715V148H598.151V4.50003H631.156V71.535L694.706 4.50003H731.606L672.156 68.46L735.091 148H696.346ZM674.789 68.5647L739.223 150H695.395L650.303 94.6418L633.156 112.519V150H596.151V2.50003H633.156V66.5183L693.846 2.50003H736.195L674.789 68.5647Z" fill="white"/>
<path fill-rule="evenodd" clip-rule="evenodd" d="M769.379 146.87L769.371 146.868C758.77 143.702 750.177 139.624 743.629 134.609L743 134.127L755.108 107.268L756.104 107.999C762.154 112.436 769.366 116.012 777.754 118.718C786.134 121.421 794.504 122.77 802.867 122.77C812.232 122.77 818.976 121.407 823.25 118.821C827.516 116.103 829.542 112.64 829.542 108.395C829.542 105.291 828.321 102.773 825.818 100.771L825.796 100.754L825.776 100.735C823.308 98.5272 820.025 96.7419 815.885 95.4067L815.876 95.4037C811.82 94.0515 806.251 92.5564 799.158 90.9194L799.151 90.918C788.196 88.316 779.201 85.7084 772.178 83.0921C765.049 80.4362 758.9 76.171 753.737 70.311L753.728 70.3008C748.615 64.3356 746.107 56.4302 746.107 46.69C746.107 38.1628 748.417 30.4518 753.04 23.5854C757.676 16.5631 764.607 11.0536 773.765 7.02948L773.77 7.02726C783.085 2.99547 794.367 1 807.582 1C816.82 1 825.853 2.10305 834.68 4.30985C843.512 6.51782 851.265 9.69817 857.927 13.862L858.641 14.3076L847.645 41.3566L846.654 40.7949C833.525 33.3506 820.437 29.65 807.377 29.65C798.161 29.65 791.499 31.1469 787.233 33.9882C783.11 36.825 781.112 40.4909 781.112 45.05C781.112 47.3293 781.695 49.2803 782.834 50.9423C783.975 52.6086 785.716 54.0417 788.12 55.2137C793.22 57.4926 800.993 59.7965 811.488 62.1135L811.496 62.1152L811.504 62.1171C822.459 64.719 831.454 67.3266 838.477 69.9429C845.6 72.5967 851.682 76.7905 856.71 82.5152C861.97 88.347 864.547 96.1923 864.547 105.935C864.547 114.336 862.163 122.048 857.406 129.045C852.766 135.933 845.765 141.372 836.475 145.393C827.16 149.425 815.878 151.42 802.662 151.42C791.23 151.42 780.136 149.905 769.386 146.872L769.379 146.87ZM856.577 128.485C861.224 121.652 863.547 114.135 863.547 105.935C863.547 96.3683 861.019 88.7833 855.962 83.18C851.042 77.5767 845.097 73.4767 838.127 70.88C831.157 68.2833 822.206 65.6867 811.272 63.09C800.749 60.7667 792.891 58.4433 787.697 56.12C782.641 53.66 780.112 49.97 780.112 45.05C780.112 40.13 782.299 36.1667 786.672 33.16C791.182 30.1533 798.084 28.65 807.377 28.65C820.341 28.65 833.305 32.244 846.268 39.4321C846.561 39.5945 846.854 39.7589 847.147 39.925L857.397 14.71C850.837 10.61 843.184 7.46667 834.437 5.27999C825.691 3.09333 816.739 2 807.582 2C794.462 2 783.324 3.98167 774.167 7.945C765.147 11.9083 758.382 17.3067 753.872 24.14C749.362 30.8367 747.107 38.3533 747.107 46.69C747.107 56.2567 749.567 63.91 754.487 69.65C759.544 75.39 765.557 79.5583 772.527 82.155C779.497 84.7517 788.449 87.3483 799.382 89.945C806.489 91.585 812.092 93.0883 816.192 94.455C820.429 95.8217 823.846 97.6667 826.442 99.99C829.176 102.177 830.542 104.978 830.542 108.395C830.542 113.042 828.287 116.8 823.777 119.67C819.267 122.403 812.297 123.77 802.867 123.77C794.394 123.77 785.921 122.403 777.447 119.67C769.351 117.058 762.315 113.636 756.34 109.402C756.062 109.205 755.786 109.006 755.512 108.805L744.237 133.815C750.661 138.735 759.134 142.767 769.657 145.91C780.317 148.917 791.319 150.42 802.662 150.42C815.782 150.42 826.921 148.438 836.077 144.475C845.234 140.512 852.067 135.182 856.577 128.485Z" stroke="white" stroke-width="1.5"/>
</svg>
